#!OML:ASF H:\BreakDance\Project 1\Capture day 1\Session 1\Male.ASF
:FULLY-SPECIFIED
:DEGREES
279
root -8.51937 16.2383 -2.29241 92.5736 -95.6152 -84.9585
lowerback -0.696262 -0.988357 -8.90043
upperback 2.76957 -1.12644 -2.49311
thorax 3.39586 -0.800731 2.34704
lowerneck 0.767083 0.666453 -2.09229
upperneck -12.6098 1.0327 4.23425
head -4.33305 0.314138 1.76763
rclavicle -3.47873e-015 7.15625e-015
rhumerus 33.301 24.6526 -51.7978
rradius 74.8809
rwrist -16.943
rhand -16.3362 -13.0006
rfingers 7.12502
rthumb 9.87579 -42.749
lclavicle -3.47873e-015 7.15625e-015
lhumerus 41.4639 -16.1269 38.5316
lradius 50.8211
lwrist -0.150247
lhand -20.6481 -31.789
lfingers 7.12502
lthumb 5.71407 -1.886
rfemur -54.0473 -3.75545 13.105
rtibia 46.4259
rfoot -15.6334 0.0888786
rtoes -10.4212
lfemur -9.25764 4.18911 -33.0669
ltibia 40.8309
lfoot -19.9817 -12.233
ltoes -6.95016
280
root -8.50076 16.1667 -2.3333 101.228 -95.7451 -93.364
lowerback -0.991157 -1.39141 -9.33848
upperback 2.47961 -1.63287 -2.19223
thorax 3.33969 -1.05211 2.8777
lowerneck 0.973326 0.740413 -2.41274
upperneck -12.2367 1.1334 4.34259
head -4.24846 0.382127 1.85406
rclavicle 7.95139e-016 1.66979e-014
rhumerus 34.9031 25.1009 -50.5298
rradius 71.8138
rwrist -16.2632
rhand -16.3126 -16.1082
rfingers 7.12502
rthumb 9.89855 -45.8555
lclavicle 7.95139e-016 1.66979e-014
lhumerus 41.1873 -16.297 39.3708
lradius 49.002
lwrist -0.617977
lhand -20.3239 -31.6627
lfingers 7.12502
lthumb 6.02709 -1.76846
rfemur -54.536 -4.73924 13.2628
rtibia 44.6819
rfoot -15.1299 1.98135
rtoes -8.15438
lfemur -8.28908 4.67826 -33.2526
ltibia 39.1414
lfoot -22.619 -11.3645
ltoes -6.436
281
root -8.4703 16.0961 -2.37756 109.069 -96.4132 -101.1
lowerback -1.1743 -1.73671 -10.1158
upperback 2.3936 -2.05672 -2.07475
thorax 3.44391 -1.28457 3.40351
lowerneck 1.23146 0.718591 -2.47298
upperneck -12.2428 1.0877 4.19615
head -4.29828 0.368972 1.81783
rclavicle 1.14301e-014 2.8625e-014
rhumerus 36.085 25.2791 -49.6506
rradius 69.2629
rwrist -15.6443
rhand -15.7919 -19.5655
rfingers 7.12502
rthumb 10.4009 -49.2882
lclavicle 1.14301e-014 2.8625e-014
lhumerus 40.8298 -16.5885 39.9578
lradius 48.3252
lwrist -1.10082
lhand -19.6339 -31.2733
lfingers 7.12502
lthumb 6.69327 -1.39912
rfemur -54.7541 -5.69697 12.9269
rtibia 44.1251
rfoot -15.4859 3.46965
rtoes -8.39932
lfemur -7.36206 5.08041 -33.8418
ltibia 37.7913
lfoot -24.9468 -10.4953
ltoes -6.05267
282
root -8.43691 16.0323 -2.4168 114.599 -97.2479 -106.5
lowerback -1.21882 -2.03145 -11.0847
upperback 2.27945 -2.4276 -1.87445
thorax 3.45877 -1.49139 4.12712
lowerneck 1.33455 0.709235 -2.54507
upperneck -12.2516 1.03671 3.85444
head -4.31573 0.363485 1.71626
rclavicle 2.18663e-015 -7.95139e-016
rhumerus 36.5016 25.494 -49.15
rradius 67.6243
rwrist -14.8704
rhand -14.5752 -22.4475
rfingers 7.12502
rthumb 11.5744 -52.1079
lclavicle 2.18663e-015 -7.95139e-016
lhumerus 39.9489 -17.0366 40.7436
lradius 48.7585
lwrist -1.54002
lhand -18.8261 -31.2991
lfingers 7.12502
lthumb 7.47301 -1.45113
rfemur -55.1166 -5.91775 11.9963
rtibia 44.505
rfoot -14.6739 2.99983
rtoes -8.60498
lfemur -6.71462 4.95542 -34.6257
ltibia 36.8903
lfoot -27.1212 -9.135
ltoes -4.85025
283
root -8.40497 15.9598 -2.44847 118.866 -97.9708 -110.593
lowerback -1.39375 -2.32159 -11.5595
upperback 2.17824 -2.78363 -1.82925
thorax 3.53664 -1.67981 4.40965
lowerneck 1.22502 0.801642 -2.4869
upperneck -12.0343 1.13465 3.54385
head -4.21388 0.428042 1.59208
rclavicle 1.83876e-014 3.37934e-014
rhumerus 36.1306 25.7517 -49.4048
rradius 66.9081
rwrist -14.061
rhand -13.6765 -23.9886
rfingers 7.12502
rthumb 12.4411 -53.5983
lclavicle 1.83876e-014 3.37934e-014
lhumerus 38.6553 -17.7955 41.1371
lradius 50.1611
lwrist -1.84517
lhand -18.2089 -31.2366
lfingers 7.12502
lthumb 8.0687 -1.41062
rfemur -55.3446 -5.688 10.9097
rtibia 45.7121
rfoot -14.7644 1.7618
rtoes -6.70907
lfemur -6.45423 4.46685 -35.3497
ltibia 36.4922
lfoot -28.9637 -6.6893
ltoes -6.66588
284
root -8.37055 15.8912 -2.46939 122.576 -98.4916 -114.123
lowerback -1.32298 -2.5521 -11.6814
upperback 2.0106 -3.10875 -1.70847
thorax 3.38742 -1.8299 4.5913
lowerneck 1.0752 0.848833 -2.27048
upperneck -11.7783 1.15424 2.98013
head -4.08209 0.458142 1.35759
rclavicle -8.15017e-015 4.8901e-014
rhumerus 35.0274 26.1214 -49.9491
rradius 67.2611
rwrist -13.4639
rhand -13.7101 -24.1412
rfingers 7.12502
rthumb 12.4086 -53.7529
lclavicle -8.15017e-015 4.8901e-014
lhumerus 37.0874 -18.8394 41.4777
lradius 52.1809
lwrist -1.99861
lhand -18.0907 -31.0834
lfingers 7.12502
lthumb 8.18275 -1.26189
rfemur -55.4112 -5.91735 10.4894
rtibia 47.5095
rfoot -14.3413 0.310133
rtoes -4.83075
lfemur -6.55768 3.79832 -35.8215
ltibia 36.5833
lfoot -30.1766 -3.9766
ltoes -10.0209
285
root -8.33742 15.8318 -2.48302 122.717 -98.9438 -114.444
lowerback -0.755603 -2.60565 -11.8921
upperback 1.96214 -3.26311 -1.6251
thorax 3.05916 -1.89415 4.81482
lowerneck 0.73637 0.913222 -1.97844
upperneck -11.6183 1.17283 2.15908
head -3.94484 0.492311 1.02709
rclavicle -5.62064e-014 1.17283e-014
rhumerus 33.4704 26.575 -50.6952
rradius 68.5244
rwrist -12.7956
rhand -14.4255 -23.1388
rfingers 7.12502
rthumb 11.7188 -52.791
lclavicle -5.62064e-014 1.17283e-014
lhumerus 35.4545 -20.0444 41.6975
lradius 54.5436
lwrist -1.6964
lhand -18.2778 -30.7624
lfingers 7.12502
lthumb 8.00226 -0.933863
rfemur -55.3065 -6.2573 10.1815
rtibia 49.7672
rfoot -13.881 -0.600502
rtoes -4.69985
lfemur -6.54325 3.07928 -36.4173
ltibia 37.0143
lfoot -30.9689 -2.33749
ltoes -11.3888
286
root -8.3233 15.8138 -2.48807 124.623 -98.4874 -116.205
lowerback -0.97366 -2.61232 -11.0141
upperback 1.98616 -3.25361 -1.38994
thorax 3.16471 -1.87516 4.56708
lowerneck 0.364948 0.964073 -1.80106
upperneck -11.5483 1.19453 1.62019
head -3.83989 0.517649 0.815154
rclavicle 3.04638e-014 3.598e-014
rhumerus 31.5482 26.9964 -51.7482
rradius 70.3012
rwrist -11.7915
rhand -14.7907 -21.5528
rfingers 7.12502
rthumb 11.3666 -51.2247
lclavicle 3.04638e-014 3.598e-014
lhumerus 34.0552 -21.5587 41.6571
lradius 56.9743
lwrist -0.681516
lhand -18.6058 -30.328
lfingers 7.12502
lthumb 7.68569 -0.48765
rfemur -55.3041 -6.46413 10.9433
rtibia 52.2597
rfoot -13.4472 -1.05208
rtoes -4.0667
lfemur -7.1046 2.42093 -35.9984
ltibia 37.7524
lfoot -31.3989 -1.47815
ltoes -12.6475
287
root -8.32417 15.809 -2.50252 125.49 -98.3903 -117.006
lowerback -1.17986 -2.51518 -10.4853
upperback 2.0202 -3.10517 -1.35116
thorax 3.26278 -1.79427 4.3139
lowerneck 0.0774395 0.923909 -1.81933
upperneck -11.4928 1.12751 1.49208
head -3.76226 0.490094 0.778169
rclavicle -4.24902e-015 -2.74323e-014
rhumerus 28.8745 27.2981 -53.2267
rradius 72.494
rwrist -11.0234
rhand -13.9438 -19.888
rfingers 7.12502
rthumb 12.1833 -49.5132
lclavicle -4.24902e-015 -2.74323e-014
lhumerus 32.8993 -23.6372 41.5249
lradius 59.4551
lwrist 0.863483
lhand -19.1137 -30.1032
lfingers 7.12502
lthumb 7.19541 -0.245498
rfemur -54.8736 -6.51367 11.102
rtibia 54.8867
rfoot -12.2807 -0.944388
rtoes -3.31487
lfemur -7.70709 2.26794 -35.7419
ltibia 38.7586
lfoot -31.3574 -1.55893
ltoes -14.2126
